<svg width="225" height="65" viewBox="0 0 225 65" fill="none" xmlns="http://www.w3.org/2000/svg">
<path d="M223.75 57.504C223.75 60.9679 220.886 63.7737 217.343 63.7737H7.66554C4.12438 63.7737 1.25 60.9679 1.25 57.504V7.50453C1.25 4.04223 4.12438 1.22656 7.66554 1.22656H217.341C220.886 1.22656 223.748 4.04223 223.748 7.50453L223.75 57.504Z" fill="white"/>
<path d="M216.667 1.30203C220.525 1.30203 223.665 4.36313 223.665 8.125V56.875C223.665 60.6369 220.525 63.698 216.667 63.698H8.33333C4.475 63.698 1.33542 60.6369 1.33542 56.875V8.125C1.33542 4.36313 4.475 1.30203 8.33333 1.30203H216.667ZM216.667 1.07313e-06H8.33333C3.75208 1.07313e-06 0 3.65828 0 8.125V56.875C0 61.3417 3.75208 65 8.33333 65H216.667C221.248 65 225 61.3417 225 56.875V8.125C225 3.65828 221.248 1.07313e-06 216.667 1.07313e-06Z" fill="#A6A6A6"/>
<path d="M50.2133 32.1489C50.165 26.9115 54.6117 24.3635 54.815 24.2449C52.2967 20.665 48.3933 20.1759 47.0217 20.1369C43.7433 19.8005 40.5633 22.0495 38.8933 22.0495C37.19 22.0495 34.6183 20.1694 31.8467 20.2247C28.28 20.2783 24.9433 22.2917 23.1133 25.4182C19.3367 31.793 22.1533 41.1612 25.7717 46.314C27.5817 48.8377 29.6967 51.6554 32.465 51.5563C35.1733 51.4474 36.185 49.8728 39.4533 49.8728C42.6917 49.8728 43.6417 51.5563 46.465 51.4929C49.3717 51.4474 51.2016 48.9579 52.9483 46.4115C55.04 43.519 55.88 40.6704 55.9133 40.5242C55.845 40.5014 50.2683 38.4263 50.2133 32.1489Z" fill="black"/>
<path d="M44.88 16.7472C46.3367 14.971 47.3333 12.5547 47.0567 10.1025C44.9483 10.1935 42.3117 11.5244 40.7933 13.2615C39.45 14.7923 38.25 17.3013 38.56 19.6608C40.9283 19.833 43.36 18.4957 44.88 16.7472Z" fill="black"/>
<path d="M81.75 16.2629C81.75 18.1755 81.1617 19.6153 79.9867 20.5822C78.8983 21.4743 77.3517 21.9212 75.3483 21.9212C74.355 21.9212 73.505 21.8789 72.7933 21.7944V11.344C73.7217 11.1978 74.7217 11.123 75.8017 11.123C77.71 11.123 79.1483 11.5277 80.1183 12.3369C81.205 13.2518 81.75 14.5599 81.75 16.2629ZM79.9083 16.31C79.9083 15.0702 79.5717 14.1195 78.8983 13.4565C78.225 12.7952 77.2417 12.4637 75.9467 12.4637C75.3967 12.4637 74.9283 12.4994 74.54 12.5742V20.5188C74.755 20.5513 75.1483 20.5659 75.72 20.5659C77.0567 20.5659 78.0883 20.2035 78.815 19.4788C79.5417 18.754 79.9083 17.6978 79.9083 16.31Z" fill="black"/>
<path d="M91.515 17.9345C91.515 19.1126 91.17 20.0778 90.48 20.8351C89.7567 21.6135 88.7983 22.0018 87.6017 22.0018C86.4483 22.0018 85.53 21.6297 84.845 20.8822C84.1617 20.1363 83.82 19.1955 83.82 18.0612C83.82 16.875 84.1717 15.9016 84.8783 15.146C85.585 14.3903 86.535 14.0117 87.7317 14.0117C88.885 14.0117 89.8117 14.3838 90.5133 15.1297C91.18 15.8545 91.515 16.7905 91.515 17.9345ZM89.7033 17.9897C89.7033 17.2828 89.5467 16.6767 89.235 16.1713C88.8683 15.5603 88.3467 15.2548 87.6683 15.2548C86.9667 15.2548 86.4333 15.5603 86.0667 16.1713C85.7533 16.6767 85.5983 17.2926 85.5983 18.0206C85.5983 18.7275 85.755 19.3336 86.0667 19.839C86.445 20.45 86.9717 20.7555 87.6517 20.7555C88.3183 20.7555 88.8417 20.4451 89.2183 19.8227C89.5417 19.3076 89.7033 18.6966 89.7033 17.9897Z" fill="black"/>
<path d="M104.608 14.167L102.15 21.8272H100.55L99.5316 18.5009C99.2733 17.6705 99.0633 16.845 98.9 16.026H98.8683C98.7166 16.8677 98.5066 17.6916 98.2366 18.5009L97.155 21.8272H95.5366L93.225 14.167H95.02L95.9083 17.8086C96.1233 18.6699 96.3 19.4905 96.4416 20.2672H96.4733C96.6033 19.627 96.8183 18.8112 97.1216 17.8249L98.2366 14.1686H99.66L100.728 17.7469C100.987 18.6195 101.197 19.4596 101.358 20.2689H101.407C101.525 19.4807 101.703 18.6406 101.94 17.7469L102.893 14.1686H104.608V14.167Z" fill="black"/>
<path d="M113.663 21.828H111.917V17.4405C111.917 16.0885 111.39 15.4125 110.333 15.4125C109.815 15.4125 109.397 15.5977 109.072 15.9698C108.75 16.342 108.587 16.7807 108.587 17.2828V21.8263H106.84V16.3566C106.84 15.6838 106.818 14.9542 106.777 14.1645H108.312L108.393 15.3621H108.442C108.645 14.99 108.948 14.6828 109.347 14.4375C109.82 14.1515 110.35 14.0068 110.93 14.0068C111.663 14.0068 112.273 14.2376 112.758 14.7007C113.362 15.2678 113.663 16.1145 113.663 17.239V21.828V21.828Z" fill="black"/>
<path d="M118.48 21.8275H116.735V10.6523H118.48V21.8275Z" fill="black"/>
<path d="M128.763 17.9345C128.763 19.1126 128.418 20.0778 127.728 20.8351C127.005 21.6135 126.045 22.0018 124.85 22.0018C123.695 22.0018 122.777 21.6297 122.093 20.8822C121.41 20.1363 121.068 19.1955 121.068 18.0612C121.068 16.875 121.42 15.9016 122.127 15.146C122.833 14.3903 123.783 14.0117 124.978 14.0117C126.133 14.0117 127.058 14.3838 127.762 15.1297C128.428 15.8545 128.763 16.7905 128.763 17.9345ZM126.95 17.9897C126.95 17.2828 126.793 16.6767 126.482 16.1713C126.117 15.5603 125.593 15.2548 124.917 15.2548C124.213 15.2548 123.68 15.5603 123.315 16.1713C123.002 16.6767 122.847 17.2926 122.847 18.0206C122.847 18.7275 123.003 19.3336 123.315 19.839C123.693 20.45 124.22 20.7555 124.9 20.7555C125.567 20.7555 126.088 20.4451 126.465 19.8227C126.79 19.3076 126.95 18.6966 126.95 17.9897Z" fill="black"/>
<path d="M137.217 21.828H135.648L135.518 20.9456H135.47C134.933 21.6492 134.168 22.0018 133.175 22.0018C132.433 22.0018 131.833 21.7695 131.382 21.308C130.972 20.8887 130.767 20.3671 130.767 19.748C130.767 18.812 131.167 18.0986 131.972 17.6046C132.775 17.1106 133.905 16.8685 135.36 16.8798V16.7368C135.36 15.7277 134.817 15.224 133.728 15.224C132.953 15.224 132.27 15.4141 131.68 15.7911L131.325 14.6731C132.055 14.2327 132.957 14.0117 134.02 14.0117C136.073 14.0117 137.103 15.068 137.103 17.1805V20.0015C137.103 20.7668 137.142 21.3762 137.217 21.828ZM135.403 19.1955V18.0141C133.477 17.9816 132.513 18.4967 132.513 19.5578C132.513 19.9576 132.623 20.2566 132.848 20.4565C133.073 20.6563 133.36 20.7555 133.702 20.7555C134.085 20.7555 134.443 20.6368 134.77 20.4012C135.098 20.164 135.3 19.8633 135.375 19.4945C135.393 19.4116 135.403 19.3108 135.403 19.1955Z" fill="black"/>
<path d="M147.142 21.8275H145.592L145.51 20.5973H145.462C144.967 21.5333 144.123 22.0013 142.938 22.0013C141.992 22.0013 141.203 21.639 140.578 20.9142C139.953 20.1895 139.642 19.2486 139.642 18.0932C139.642 16.8533 139.98 15.8491 140.66 15.0821C141.318 14.3671 142.125 14.0096 143.085 14.0096C144.14 14.0096 144.878 14.3557 145.298 15.0496H145.332V10.6523H147.08V19.7637C147.08 20.5096 147.1 21.197 147.142 21.8275ZM145.332 18.597V17.3197C145.332 17.0987 145.315 16.92 145.283 16.7835C145.185 16.374 144.973 16.0295 144.652 15.7516C144.327 15.4737 143.935 15.334 143.483 15.334C142.832 15.334 142.322 15.5858 141.947 16.0912C141.575 16.5966 141.387 17.2417 141.387 18.0298C141.387 18.7871 141.565 19.4013 141.923 19.8742C142.302 20.378 142.812 20.6298 143.45 20.6298C144.023 20.6298 144.482 20.4202 144.83 19.9993C145.167 19.611 145.332 19.143 145.332 18.597Z" fill="black"/>
<path d="M162.08 17.9345C162.08 19.1126 161.735 20.0778 161.045 20.8351C160.322 21.6135 159.365 22.0018 158.167 22.0018C157.015 22.0018 156.097 21.6297 155.41 20.8822C154.727 20.1363 154.385 19.1955 154.385 18.0612C154.385 16.875 154.737 15.9016 155.443 15.146C156.15 14.3903 157.1 14.0117 158.298 14.0117C159.45 14.0117 160.378 14.3838 161.078 15.1297C161.745 15.8545 162.08 16.7905 162.08 17.9345ZM160.27 17.9897C160.27 17.2828 160.113 16.6767 159.802 16.1713C159.433 15.5603 158.913 15.2548 158.233 15.2548C157.533 15.2548 157 15.5603 156.632 16.1713C156.318 16.6767 156.163 17.2926 156.163 18.0206C156.163 18.7275 156.32 19.3336 156.632 19.839C157.01 20.45 157.537 20.7555 158.217 20.7555C158.883 20.7555 159.408 20.4451 159.785 19.8227C160.107 19.3076 160.27 18.6966 160.27 17.9897Z" fill="black"/>
<path d="M171.472 21.828H169.727V17.4405C169.727 16.0885 169.2 15.4125 168.142 15.4125C167.623 15.4125 167.205 15.5977 166.882 15.9698C166.558 16.342 166.397 16.7807 166.397 17.2828V21.8263H164.648V16.3566C164.648 15.6838 164.628 14.9542 164.587 14.1645H166.12L166.202 15.3621H166.25C166.455 14.99 166.758 14.6828 167.155 14.4375C167.63 14.1515 168.158 14.0068 168.74 14.0068C169.472 14.0068 170.082 14.2376 170.567 14.7007C171.172 15.2678 171.472 16.1145 171.472 17.239V21.828V21.828Z" fill="black"/>
<path d="M183.227 15.4431H181.303V19.1644C181.303 20.1101 181.645 20.583 182.322 20.583C182.635 20.583 182.895 20.557 183.1 20.5034L183.145 21.7953C182.8 21.922 182.347 21.9854 181.788 21.9854C181.098 21.9854 180.562 21.7806 180.173 21.3711C179.783 20.9616 179.59 20.2726 179.59 19.3058V15.4431H178.442V14.1675H179.59V12.7635L181.302 12.2598V14.1659H183.225V15.4431H183.227Z" fill="black"/>
<path d="M192.473 21.8275H190.725V17.4725C190.725 16.0993 190.198 15.412 189.143 15.412C188.333 15.412 187.78 15.8101 187.477 16.6063C187.425 16.7737 187.395 16.9785 187.395 17.219V21.8258H185.65V10.6523H187.395V15.269H187.428C187.978 14.4288 188.767 14.0096 189.788 14.0096C190.512 14.0096 191.11 14.2403 191.585 14.7035C192.177 15.2803 192.473 16.1383 192.473 17.2726V21.8275V21.8275Z" fill="black"/>
<path d="M202.012 17.6354C202.012 17.9409 201.988 18.1977 201.947 18.4073H196.708C196.732 19.1646 196.982 19.7414 197.467 20.1412C197.91 20.4987 198.482 20.6774 199.182 20.6774C199.957 20.6774 200.663 20.5572 201.3 20.3151L201.573 21.4981C200.828 21.8133 199.952 21.9709 198.937 21.9709C197.72 21.9709 196.762 21.6216 196.068 20.9228C195.372 20.2241 195.027 19.2864 195.027 18.1099C195.027 16.9546 195.348 15.9926 195.997 15.2256C196.673 14.4066 197.588 13.9971 198.743 13.9971C199.873 13.9971 200.732 14.4066 201.312 15.2256C201.78 15.8756 202.012 16.6799 202.012 17.6354ZM200.345 17.1951C200.358 16.6897 200.243 16.2542 200.007 15.8869C199.703 15.4141 199.242 15.1768 198.617 15.1768C198.047 15.1768 197.582 15.4076 197.227 15.8707C196.937 16.2396 196.765 16.6799 196.708 17.1951H200.345Z" fill="black"/>
<path d="M89.4083 51.1948H85.6233L83.55 44.8427H76.3433L74.3683 51.1948H70.6833L77.8233 29.5693H82.2333L89.4083 51.1948ZM82.925 42.1777L81.05 36.5308C80.8517 35.954 80.48 34.5955 79.9317 32.457H79.865C79.6467 33.3767 79.295 34.7352 78.8117 36.5308L76.97 42.1777H82.925V42.1777Z" fill="black"/>
<path d="M107.77 43.2064C107.77 45.8584 107.035 47.9546 105.565 49.4935C104.248 50.8634 102.613 51.5475 100.662 51.5475C98.555 51.5475 97.0417 50.8097 96.12 49.3342H96.0533V57.5486H92.5V40.7347C92.5 39.0675 92.455 37.3564 92.3683 35.6014H95.4933L95.6917 38.073H95.7583C96.9433 36.2108 98.7417 35.2812 101.155 35.2812C103.042 35.2812 104.617 36.0076 105.877 37.462C107.14 38.918 107.77 40.8322 107.77 43.2064ZM104.15 43.3331C104.15 41.8154 103.8 40.5641 103.097 39.5794C102.328 38.5524 101.297 38.0389 100.003 38.0389C99.1267 38.0389 98.33 38.3249 97.6183 38.8887C96.905 39.4575 96.4383 40.2001 96.22 41.1199C96.11 41.5489 96.055 41.8999 96.055 42.1761V44.7761C96.055 45.9104 96.4117 46.8675 97.125 47.6491C97.8383 48.4308 98.765 48.8207 99.905 48.8207C101.243 48.8207 102.285 48.317 103.03 47.3127C103.777 46.3069 104.15 44.9809 104.15 43.3331Z" fill="black"/>
<path d="M126.165 43.2064C126.165 45.8584 125.43 47.9546 123.958 49.4935C122.643 50.8634 121.008 51.5475 119.057 51.5475C116.95 51.5475 115.437 50.8097 114.517 49.3342H114.45V57.5486H110.897V40.7347C110.897 39.0675 110.852 37.3564 110.765 35.6014H113.89L114.088 38.073H114.155C115.338 36.2108 117.137 35.2812 119.552 35.2812C121.437 35.2812 123.012 36.0076 124.275 37.462C125.533 38.918 126.165 40.8322 126.165 43.2064ZM122.545 43.3331C122.545 41.8154 122.193 40.5641 121.49 39.5794C120.722 38.5524 119.693 38.0389 118.398 38.0389C117.52 38.0389 116.725 38.3249 116.012 38.8887C115.298 39.4575 114.833 40.2001 114.615 41.1199C114.507 41.5489 114.45 41.8999 114.45 42.1761V44.7761C114.45 45.9104 114.807 46.8675 115.517 47.6491C116.23 48.4291 117.157 48.8207 118.3 48.8207C119.638 48.8207 120.68 48.317 121.425 47.3127C122.172 46.3069 122.545 44.9809 122.545 43.3331Z" fill="black"/>
<path d="M146.732 45.1298C146.732 46.9693 146.077 48.466 144.762 49.6213C143.317 50.884 141.305 51.5145 138.72 51.5145C136.333 51.5145 134.42 51.066 132.972 50.1673L133.795 47.2797C135.355 48.1995 137.067 48.661 138.932 48.661C140.27 48.661 141.312 48.3652 142.06 47.777C142.805 47.1887 143.177 46.399 143.177 45.4142C143.177 44.5367 142.87 43.7973 142.255 43.1977C141.643 42.5981 140.622 42.0407 139.195 41.5256C135.312 40.1135 133.372 38.0448 133.372 35.3246C133.372 33.5468 134.052 32.0892 135.413 30.955C136.77 29.8191 138.58 29.252 140.843 29.252C142.862 29.252 144.538 29.5948 145.877 30.279L144.988 33.1032C143.738 32.4402 142.325 32.1087 140.743 32.1087C139.493 32.1087 138.517 32.4093 137.817 33.0073C137.225 33.542 136.928 34.1936 136.928 34.9655C136.928 35.8202 137.267 36.5271 137.947 37.0828C138.538 37.5963 139.613 38.1521 141.173 38.7517C143.082 39.5008 144.483 40.3767 145.385 41.381C146.283 42.382 146.732 43.6348 146.732 45.1298Z" fill="black"/>
<path d="M158.48 38.2002H154.563V45.7711C154.563 47.6967 155.253 48.6587 156.637 48.6587C157.272 48.6587 157.798 48.6051 158.215 48.4978L158.313 51.1287C157.613 51.3838 156.692 51.5122 155.55 51.5122C154.147 51.5122 153.05 51.0946 152.258 50.261C151.47 49.4257 151.073 48.025 151.073 46.0571V38.197H148.74V35.597H151.073V32.7418L154.563 31.7148V35.597H158.48V38.2002Z" fill="black"/>
<path d="M176.152 43.2691C176.152 45.666 175.448 47.6339 174.045 49.1727C172.573 50.7571 170.62 51.5469 168.185 51.5469C165.838 51.5469 163.97 50.788 162.577 49.2702C161.183 47.7525 160.487 45.8366 160.487 43.5275C160.487 41.1111 161.203 39.1319 162.642 37.593C164.077 36.0525 166.013 35.2822 168.448 35.2822C170.795 35.2822 172.683 36.0411 174.108 37.5605C175.472 39.0344 176.152 40.9372 176.152 43.2691ZM172.465 43.3812C172.465 41.9431 172.15 40.7097 171.512 39.6811C170.767 38.4364 169.702 37.8156 168.322 37.8156C166.893 37.8156 165.808 38.438 165.063 39.6811C164.425 40.7114 164.11 41.9642 164.11 43.4462C164.11 44.8844 164.425 46.1177 165.063 47.1447C165.832 48.3895 166.905 49.0102 168.29 49.0102C169.647 49.0102 170.712 48.3765 171.48 47.1122C172.135 46.0641 172.465 44.8177 172.465 43.3812Z" fill="black"/>
<path d="M187.702 38.6483C187.35 38.5849 186.975 38.5524 186.582 38.5524C185.332 38.5524 184.365 39.0122 183.685 39.9336C183.093 40.7461 182.797 41.7731 182.797 43.013V51.1949H179.245L179.278 40.5121C179.278 38.7149 179.233 37.0785 179.145 35.603H182.24L182.37 38.5865H182.468C182.843 37.5611 183.435 36.7356 184.245 36.1165C185.037 35.5591 185.892 35.2812 186.813 35.2812C187.142 35.2812 187.438 35.304 187.702 35.3446V38.6483Z" fill="black"/>
<path d="M203.593 42.6603C203.593 43.2811 203.552 43.8043 203.463 44.2317H192.803C192.845 45.7722 193.36 46.9503 194.35 47.7628C195.248 48.4892 196.41 48.8532 197.837 48.8532C199.415 48.8532 200.855 48.6078 202.15 48.1154L202.707 50.5205C201.193 51.164 199.407 51.4841 197.345 51.4841C194.865 51.4841 192.918 50.7723 191.502 49.3504C190.088 47.9286 189.38 46.0192 189.38 43.6239C189.38 41.2726 190.038 39.3145 191.357 37.7528C192.737 36.0856 194.602 35.252 196.948 35.252C199.253 35.252 200.998 36.0856 202.183 37.7528C203.122 39.0772 203.593 40.7152 203.593 42.6603ZM200.205 41.7617C200.228 40.7347 199.997 39.8475 199.515 39.0983C198.9 38.1347 197.955 37.6537 196.683 37.6537C195.522 37.6537 194.577 38.1233 193.855 39.0658C193.263 39.815 192.912 40.7136 192.803 41.7601H200.205V41.7617Z" fill="black"/>
</svg>
