<svg width="225" height="65" viewBox="0 0 225 65" fill="none" xmlns="http://www.w3.org/2000/svg">
<path d="M216.667 65H8.33333C3.75208 65 0 61.3417 0 56.875V8.125C0 3.65829 3.75208 3.43521e-06 8.33333 3.43521e-06H216.667C221.248 3.43521e-06 225 3.65829 225 8.125V56.875C225 61.3417 221.248 65 216.667 65Z" fill="white"/>
<path d="M216.667 1.30203C220.525 1.30203 223.665 4.36313 223.665 8.125V56.875C223.665 60.6369 220.525 63.698 216.667 63.698H8.33333C4.475 63.698 1.33542 60.6369 1.33542 56.875V8.125C1.33542 4.36313 4.475 1.30203 8.33333 1.30203H216.667ZM216.667 1.07313e-06H8.33333C3.75208 1.07313e-06 0 3.65828 0 8.125V56.875C0 61.3417 3.75208 65 8.33333 65H216.667C221.248 65 225 61.3417 225 56.875V8.125C225 3.65828 221.248 1.07313e-06 216.667 1.07313e-06Z" fill="#A6A6A6"/>
<path d="M17.3917 12.2503C16.9021 12.75 16.6188 13.528 16.6188 14.5355V50.4723C16.6188 51.4798 16.9021 52.2578 17.3917 52.7575L17.5125 52.8672L38.1667 32.7375V32.2622L17.5125 12.1325L17.3917 12.2503Z" fill="url(#paint0_linear_249_231)"/>
<path d="M45.0437 39.4502L38.1666 32.7369V32.2616L45.052 25.5483L45.2062 25.6357L53.3604 30.1593C55.6875 31.443 55.6875 33.5555 53.3604 34.8474L45.2062 39.3628L45.0437 39.4502V39.4502Z" fill="url(#paint1_linear_249_231)"/>
<path d="M45.2063 39.3633L38.1667 32.4997L17.3917 52.7573C18.1646 53.5495 19.4251 53.645 20.8584 52.8528L45.2063 39.3633" fill="url(#paint2_linear_249_231)"/>
<path d="M45.2063 25.6364L20.8584 12.1469C19.4251 11.3628 18.1646 11.4583 17.3917 12.2505L38.1667 32.5L45.2063 25.6364Z" fill="url(#paint3_linear_249_231)"/>
<path d="M79.0292 16.6467C79.0292 18.0036 78.6125 19.0903 77.7917 19.9008C76.8479 20.8616 75.6188 21.345 74.1125 21.345C72.6729 21.345 71.4437 20.8534 70.4354 19.8845C69.425 18.9014 68.9208 17.6948 68.9208 16.2506C68.9208 14.8064 69.425 13.5998 70.4354 12.6248C71.4437 11.6478 72.6729 11.1562 74.1125 11.1562C74.8292 11.1562 75.5125 11.3005 76.1646 11.5686C76.8146 11.8388 77.3437 12.2044 77.7271 12.6553L76.8563 13.5125C76.1875 12.7427 75.2771 12.3628 74.1125 12.3628C73.0625 12.3628 72.1521 12.7203 71.3792 13.4414C70.6146 14.1645 70.2312 15.1009 70.2312 16.2506C70.2312 17.4003 70.6146 18.3448 71.3792 19.068C72.1521 19.7809 73.0625 20.1466 74.1125 20.1466C75.2271 20.1466 76.1646 19.7809 76.9042 19.0598C77.3917 18.5825 77.6688 17.9244 77.7417 17.0834H74.1125V15.9094H78.9542C79.0125 16.1633 79.0292 16.4091 79.0292 16.6467V16.6467Z" fill="black" stroke="black" stroke-width="0.16" stroke-miterlimit="10"/>
<path d="M86.7104 12.5763H82.1625V15.6638H86.2625V16.8378H82.1625V19.9253H86.7104V21.1218H80.875V11.3799H86.7104V12.5763Z" fill="black" stroke="black" stroke-width="0.16" stroke-miterlimit="10"/>
<path d="M92.1312 21.1218H90.8437V12.5763H88.0541V11.3799H94.9229V12.5763H92.1312V21.1218V21.1218Z" fill="black" stroke="black" stroke-width="0.16" stroke-miterlimit="10"/>
<path d="M99.8938 21.1218V11.3799H101.179V21.1218H99.8938Z" fill="black" stroke="black" stroke-width="0.16" stroke-miterlimit="10"/>
<path d="M106.877 21.1218H105.6V12.5763H102.8V11.3799H109.677V12.5763H106.877V21.1218Z" fill="black" stroke="black" stroke-width="0.16" stroke-miterlimit="10"/>
<path d="M122.681 19.8683C121.696 20.8534 120.475 21.345 119.019 21.345C117.554 21.345 116.333 20.8534 115.348 19.8683C114.365 18.8852 113.875 17.6786 113.875 16.2506C113.875 14.8227 114.365 13.6161 115.348 12.633C116.333 11.6478 117.554 11.1562 119.019 11.1562C120.467 11.1562 121.688 11.6478 122.673 12.6411C123.665 13.6323 124.154 14.8308 124.154 16.2506C124.154 17.6786 123.665 18.8852 122.681 19.8683ZM116.3 19.0517C117.042 19.7809 117.944 20.1466 119.019 20.1466C120.085 20.1466 120.996 19.7809 121.729 19.0517C122.469 18.3225 122.844 17.3861 122.844 16.2506C122.844 15.1152 122.469 14.1788 121.729 13.4495C120.996 12.7203 120.085 12.3547 119.019 12.3547C117.944 12.3547 117.042 12.7203 116.3 13.4495C115.56 14.1788 115.185 15.1152 115.185 16.2506C115.185 17.3861 115.56 18.3225 116.3 19.0517V19.0517Z" fill="black" stroke="black" stroke-width="0.16" stroke-miterlimit="10"/>
<path d="M125.96 21.1218V11.3799H127.523L132.381 18.9564H132.437L132.381 17.0836V11.3799H133.667V21.1218H132.325L127.237 13.1714H127.181L127.237 15.0524V21.1218H125.96V21.1218Z" fill="black" stroke="black" stroke-width="0.16" stroke-miterlimit="10"/>
<path d="M113.558 35.3479C109.644 35.3479 106.446 38.2525 106.446 42.2602C106.446 46.2354 109.644 49.1705 113.558 49.1705C117.481 49.1705 120.679 46.2354 120.679 42.2602C120.679 38.2525 117.481 35.3479 113.558 35.3479ZM113.558 46.4486C111.41 46.4486 109.563 44.72 109.563 42.2602C109.563 39.7679 111.41 38.0697 113.558 38.0697C115.706 38.0697 117.563 39.7679 117.563 42.2602C117.563 44.72 115.706 46.4486 113.558 46.4486V46.4486ZM98.0396 35.3479C94.1167 35.3479 90.9271 38.2525 90.9271 42.2602C90.9271 46.2354 94.1167 49.1705 98.0396 49.1705C101.96 49.1705 105.152 46.2354 105.152 42.2602C105.152 38.2525 101.96 35.3479 98.0396 35.3479ZM98.0396 46.4486C95.8896 46.4486 94.0354 44.72 94.0354 42.2602C94.0354 39.7679 95.8896 38.0697 98.0396 38.0697C100.188 38.0697 102.035 39.7679 102.035 42.2602C102.035 44.72 100.188 46.4486 98.0396 46.4486ZM79.5729 37.4664V40.4036H86.7667C86.5563 42.0449 85.9938 43.2514 85.1313 44.0924C84.0813 45.108 82.4458 46.2354 79.5729 46.2354C75.1459 46.2354 71.6792 42.7518 71.6792 38.4354C71.6792 34.119 75.1459 30.6354 79.5729 30.6354C81.9667 30.6354 83.7084 31.5474 84.9938 32.7296L87.1167 30.6597C85.3188 28.986 82.9271 27.7002 79.5729 27.7002C73.5021 27.7002 68.4 32.5163 68.4 38.4354C68.4 44.3544 73.5021 49.1705 79.5729 49.1705C82.8542 49.1705 85.3188 48.1224 87.2563 46.1561C89.2417 44.2204 89.8604 41.4985 89.8604 39.3007C89.8604 38.6182 89.8021 37.9905 89.6979 37.4664H79.5729ZM155.085 39.7435C154.5 38.1977 152.694 35.3479 149.015 35.3479C145.369 35.3479 142.333 38.1489 142.333 42.2602C142.333 46.1318 145.337 49.1705 149.365 49.1705C152.621 49.1705 154.5 47.2347 155.273 46.1074L152.856 44.5372C152.05 45.6869 150.952 46.4486 149.365 46.4486C147.787 46.4486 146.656 45.7438 145.931 44.3544L155.412 40.5296L155.085 39.7435V39.7435ZM145.419 42.0449C145.337 39.3799 147.542 38.0149 149.121 38.0149C150.358 38.0149 151.408 38.6182 151.758 39.4814L145.419 42.0449V42.0449ZM137.712 48.75H140.829V28.4375H137.712V48.75ZM132.608 36.8875H132.504C131.804 36.0791 130.469 35.3479 128.777 35.3479C125.227 35.3479 121.981 38.3866 121.981 42.2825C121.981 46.1561 125.227 49.1705 128.777 49.1705C130.469 49.1705 131.804 48.4332 132.504 47.6004H132.608V48.5916C132.608 51.2343 131.16 52.6541 128.825 52.6541C126.921 52.6541 125.74 51.3135 125.252 50.1861L122.542 51.2891C123.323 53.1213 125.392 55.376 128.825 55.376C132.479 55.376 135.562 53.2797 135.562 48.1793V35.7683H132.608V36.8875V36.8875ZM129.044 46.4486C126.896 46.4486 125.098 44.6957 125.098 42.2825C125.098 39.8471 126.896 38.0697 129.044 38.0697C131.16 38.0697 132.829 39.8471 132.829 42.2825C132.829 44.6957 131.16 46.4486 129.044 46.4486V46.4486ZM169.677 28.4375H162.223V48.75H165.331V41.0536H169.677C173.129 41.0536 176.515 38.6182 176.515 34.7446C176.515 30.873 173.121 28.4375 169.677 28.4375V28.4375ZM169.758 38.2282H165.331V31.263H169.758C172.079 31.263 173.404 33.1419 173.404 34.7446C173.404 36.3168 172.079 38.2282 169.758 38.2282ZM188.973 35.3093C186.727 35.3093 184.392 36.2761 183.431 38.4191L186.19 39.5464C186.783 38.4191 187.875 38.0535 189.029 38.0535C190.642 38.0535 192.277 38.998 192.302 40.6657V40.8789C191.74 40.5621 190.535 40.0929 189.054 40.0929C186.083 40.0929 183.056 41.6874 183.056 44.6632C183.056 47.385 185.49 49.138 188.225 49.138C190.317 49.138 191.471 48.2179 192.196 47.1474H192.302V48.7175H195.304V40.9257C195.304 37.3243 192.546 35.3093 188.973 35.3093ZM188.598 46.4405C187.581 46.4405 186.165 45.9489 186.165 44.72C186.165 43.1479 187.931 42.5446 189.46 42.5446C190.829 42.5446 191.471 42.8391 192.302 43.2271C192.058 45.108 190.398 46.4405 188.598 46.4405V46.4405ZM206.242 35.7541L202.669 44.5596H202.562L198.869 35.7541H195.517L201.067 48.0594L197.9 54.9068H201.148L209.7 35.7541H206.242V35.7541ZM178.223 48.75H181.34V28.4375H178.223V48.75Z" fill="black"/>
<defs>
<linearGradient id="paint0_linear_249_231" x1="36.3328" y1="50.8466" x2="9.07018" y2="22.8849" gradientUnits="userSpaceOnUse">
<stop stop-color="#00A0FF"/>
<stop offset="0.0066" stop-color="#00A1FF"/>
<stop offset="0.2601" stop-color="#00BEFF"/>
<stop offset="0.5122" stop-color="#00D2FF"/>
<stop offset="0.7604" stop-color="#00DFFF"/>
<stop offset="1" stop-color="#00E3FF"/>
</linearGradient>
<linearGradient id="paint1_linear_249_231" x1="56.3906" y1="32.497" x2="16.0625" y2="32.497" gradientUnits="userSpaceOnUse">
<stop stop-color="#FFE000"/>
<stop offset="0.4087" stop-color="#FFBD00"/>
<stop offset="0.7754" stop-color="#FFA500"/>
<stop offset="1" stop-color="#FF9C00"/>
</linearGradient>
<linearGradient id="paint2_linear_249_231" x1="41.3784" y1="28.7685" x2="4.408" y2="-9.14982" gradientUnits="userSpaceOnUse">
<stop stop-color="#FF3A44"/>
<stop offset="1" stop-color="#C31162"/>
</linearGradient>
<linearGradient id="paint3_linear_249_231" x1="12.1622" y1="64.7137" x2="28.6712" y2="47.7816" gradientUnits="userSpaceOnUse">
<stop stop-color="#32A071"/>
<stop offset="0.0685" stop-color="#2DA771"/>
<stop offset="0.4762" stop-color="#15CF74"/>
<stop offset="0.8009" stop-color="#06E775"/>
<stop offset="1" stop-color="#00F076"/>
</linearGradient>
</defs>
</svg>
